<?xml version="1.0" encoding="UTF-8" standalone="no"?>
<svg xmlns:xlink="http://www.w3.org/1999/xlink" height="38.0px" width="62.3px" xmlns="http://www.w3.org/2000/svg">
  <g transform="matrix(1.0, 0.0, 0.0, 1.0, -17.6, -1.0)">
    <path d="M78.85 17.45 Q80.65 25.15 79.4 30.3 75.95 36.4 69.9 39.0 L26.0 39.0 25.9 38.95 Q24.15 37.8 22.75 36.5 20.05 34.05 18.4 30.95 L18.2 30.55 18.1 30.2 Q17.7 28.5 17.6 26.5 17.45 22.55 18.65 17.45 19.8 12.65 21.65 8.1 22.35 6.3 23.2 4.6 L25.0 1.0 72.5 1.0 Q76.8 8.8 78.85 17.45 M78.95 28.2 L79.1 27.4 79.2 26.3 79.2 23.35 Q79.0 20.45 78.2 17.0 76.2 8.9 72.15 1.6 L25.4 1.6 23.8 4.7 22.3 8.1 Q20.5 12.4 19.45 17.0 L18.95 19.35 18.95 19.45 18.9 19.7 18.35 25.95 Q18.45 27.85 18.85 29.5 L18.9 29.85 19.1 30.2 22.1 34.3 23.35 35.5 Q24.7 36.75 26.4 37.85 L26.5 37.9 69.4 37.9 Q75.3 35.4 78.7 29.55 L78.95 28.2" fill="#000000" fill-rule="evenodd" stroke="none"/>
    <path d="M18.95 19.45 L18.95 19.35 19.45 17.0 Q20.5 12.4 22.3 8.1 L23.8 4.7 25.4 1.6 72.15 1.6 Q76.2 8.9 78.2 17.0 79.0 20.45 79.2 23.35 L79.2 26.3 79.1 27.4 78.95 28.2 78.75 29.25 Q75.35 35.1 69.45 37.6 L26.55 37.6 26.45 37.55 23.4 35.2 22.15 34.0 19.15 29.9 18.95 29.55 18.9 29.2 Q18.5 27.55 18.4 25.65 L18.95 19.45" fill="#ADD8E6" fill-rule="evenodd" stroke="none"/>
  </g>
</svg>
