<?xml version="1.0" encoding="UTF-8" standalone="no"?>
<svg xmlns:xlink="http://www.w3.org/1999/xlink" height="97.0px" width="23.75px" xmlns="http://www.w3.org/2000/svg">
  <g transform="matrix(1.0, 0.0, 0.0, 1.0, -5.0, 104.15)">
    <path d="M19.65 -30.15 Q22.6 -29.45 24.9 -27.1 28.25 -23.75 28.25 -19.05 28.25 -14.35 24.9 -11.0 21.55 -7.65 16.85 -7.65 12.15 -7.65 8.8 -11.0 5.45 -14.35 5.5 -19.05 5.45 -23.75 8.8 -27.1 10.75 -29.1 13.15 -29.9 L16.85 -30.45 19.65 -30.15" fill="url(#gradient0)" fill-rule="evenodd" stroke="none"/>
    <path d="M13.15 -29.9 L13.05 -103.65 19.7 -103.65 19.65 -30.15" fill="none" stroke="#000000" stroke-linecap="round" stroke-linejoin="round" stroke-width="1.0"/>
    <path d="M19.65 -30.15 Q22.6 -29.45 24.9 -27.1 28.25 -23.75 28.25 -19.05 28.25 -14.35 24.9 -11.0 21.55 -7.65 16.85 -7.65 12.15 -7.65 8.8 -11.0 5.45 -14.35 5.5 -19.05 5.45 -23.75 8.8 -27.1 10.75 -29.1 13.15 -29.9 L16.85 -30.45 19.65 -30.15" fill="none" stroke="#000000" stroke-linecap="round" stroke-linejoin="round" stroke-width="1.0"/>
  </g>
  <defs>
    <radialGradient cx="0" cy="0" gradientTransform="matrix(0.0151, 0.0, 0.0, 0.0151, 16.95, -18.6)" gradientUnits="userSpaceOnUse" id="gradient0" r="819.2" spreadMethod="pad">
      <stop offset="0.0" stop-color="#f9f9f9"/>
      <stop offset="1.0" stop-color="#ff0d01"/>
    </radialGradient>
  </defs>
</svg>
