<svg xmlns:xlink="http://www.w3.org/1999/xlink" xmlns="http://www.w3.org/2000/svg" height="200" width="23.75" style=""><rect id="backgroundrect" width="100%" height="100%" x="0" y="0" fill="none" stroke="none"/>
  
  <defs>
    <radialGradient cx="0" cy="0" gradientTransform="matrix(0.0151, 0.0, 0.0, 0.0151, 16.95, -18.6)" gradientUnits="userSpaceOnUse" id="gradient0" r="819.2000122070312" spreadMethod="pad">
      <stop offset="0.0" stop-color="#f9f9f9"/>
      <stop offset="1.0" stop-color="#ff0d01"/>
    </radialGradient>
  </defs>
<g class="currentLayer" style=""><title>Layer 1</title><g id="svg_1" class="">
    <path d="M14.68888440132141,176.78224692493677 Q17.638884401321413,177.48224692493676 19.93888440132141,179.83224692493678 Q23.28888440132141,183.18224692493678 23.28888440132141,187.8822469249368 Q23.28888440132141,192.58224692493678 19.93888440132141,195.93224692493678 Q16.588884401321412,199.28224692493677 11.888884401321413,199.28224692493677 Q7.1888844013214115,199.28224692493677 3.8388844013214123,195.93224692493678 Q0.4888844013214114,192.58224692493678 0.5388844013214111,187.8822469249368 Q0.4888844013214114,183.18224692493678 3.8388844013214123,179.83224692493678 Q5.788884401321412,177.83224692493678 8.188884401321411,177.03224692493677 L11.888884401321413,176.48224692493676 L14.68888440132141,176.78224692493677 " fill="url(#gradient0)" fill-rule="evenodd" stroke="none" id="svg_2"/>
    <path d="M8.188884401321411,177.03224692493677 L8.088884401321412,3 L14.73888440132141,3 L14.68888440132141,176.78224692493677 " fill="none" stroke="#000000" stroke-linecap="round" stroke-linejoin="round" stroke-width="1" id="svg_3"/>
    <path d="M14.68888440132141,176.78224692493677 Q17.638884401321413,177.48224692493676 19.93888440132141,179.83224692493678 Q23.28888440132141,183.18224692493678 23.28888440132141,187.8822469249368 Q23.28888440132141,192.58224692493678 19.93888440132141,195.93224692493678 Q16.588884401321412,199.28224692493677 11.888884401321413,199.28224692493677 Q7.1888844013214115,199.28224692493677 3.8388844013214123,195.93224692493678 Q0.4888844013214114,192.58224692493678 0.5388844013214111,187.8822469249368 Q0.4888844013214114,183.18224692493678 3.8388844013214123,179.83224692493678 Q5.788884401321412,177.83224692493678 8.188884401321411,177.03224692493677 L11.888884401321413,176.48224692493676 L14.68888440132141,176.78224692493677 " fill="none" stroke="#000000" stroke-linecap="round" stroke-linejoin="round" stroke-width="1" id="svg_4"/>
  </g></g></svg>